<?xml version="1.0" encoding="utf-8"?>
<!-- Generator: Adobe Illustrator 16.0.0, SVG Export Plug-In . SVG Version: 6.00 Build 0)  -->
<!DOCTYPE svg PUBLIC "-//W3C//DTD SVG 1.1//EN" "http://www.w3.org/Graphics/SVG/1.1/DTD/svg11.dtd">
<svg version="1.1" id="Layer_1" xmlns="http://www.w3.org/2000/svg" xmlns:xlink="http://www.w3.org/1999/xlink" x="0px" y="0px"
	 width="1156.857px" height="399.186px" viewBox="0 0 1156.857 399.186" enable-background="new 0 0 1156.857 399.186"
	 xml:space="preserve">
<g>
	<path fill-rule="evenodd" clip-rule="evenodd" fill="#DA3B35" d="M694.395,386.658c-5.498,0-11.002-0.134-16.495,0.04
		c-4.79,0.152-8.135-1.847-7.596-6.677c0.729-6.524-4.037-7.976-8.011-10.208c-11.08-6.224-22.33-12.146-33.341-18.486
		c-2.317-1.334-2.946-0.555-3.6,1.204c-1.078,2.903,0.046,5.41,1.448,7.963c3.862,7.024,10.887,9.02,17.697,11.336
		c2.58,0.878,3.867,2.409,3.479,5.128c-0.416,2.909-2.89,1.668-4.415,1.9c-6.615,1.008-13.151,3.19-19.984,0.568
		c-3.418-1.312-7.271-1.867-9.508-4.981c-2.613-3.638-7.007-2.403-10.29-4.337c-2.151-1.268-4.194-2.525-5.995-4.212
		c-2.424-2.274-2.666-4.563-0.67-7.462c5.967-8.662,11.581-17.57,17.589-26.204c4.237-6.091,6.485-13.084,7.758-20.028
		c1.58-8.62,5.865-14.83,12.615-19.62c5.157-3.661,7.639-7.038,5.358-14.231c-3.869-12.198-4.166-25.159-3.906-37.948
		c0.07-3.418-1.016-5.914-3.169-7.97c-10.271-9.806-9.748-20.752-4.132-30.638c4.974-8.754,3.78-16.7,0.867-25.122
		c-1.909-5.519-4.181-10.911-6.359-16.332c-1.347-3.354,1.07-6.012,2.311-8.274c8.689-15.854,16.574-32.298,29.304-45.54
		c2.368-2.464,5.196-4.592,8.107-6.401c5.467-3.396,7.265-9.011,9.151-14.494c1.557-4.527,1.955-9.488,3.767-13.886
		c4.448-10.799,14.244-15.813,25.76-13.013c7.823,1.903,15.517,4.509,21.008,11.146c2.07,2.502,2.846,4.838,0.09,7.103
		c-1.429,1.175-1.405,2.505-1.364,3.995c0.036,1.327,0.276,2.715-0.936,3.699c-2.712,2.203-3.189,4.685-1.646,7.921
		c1.36,2.856-0.097,5.067-2.522,6.804c-2.311,1.655-3.823,3.32-3.345,6.877c0.81,6.022-1.139,7.698-7.287,7.688
		c-2.822-0.005-5.65-0.266-8.467-0.52c-6.651-0.598-11.249,3.375-10.836,10.029c0.504,8.105,2.248,16.072,2.127,24.302
		c-0.072,4.823-1.312,8.422-5.137,10.994c-2.53,1.702-2.6,3.946-3.148,6.64c-1.962,9.638,2.646,15.188,10.092,20.223
		c5.265,3.56,10.198,7.714,15.456,11.359c1.338,0.928,2.884,1.475,4.616,1.676c5.375,0.625,8.475-1.085,11.128-6.405
		c11.312-22.673,23.306-45.006,35.047-67.464c1.901-3.639,3.879-7.243,5.647-10.947c1.548-3.243,3.894-5.668,7.354-3.74
		c3.364,1.875,3.36,5.509,1.695,8.809c-4.084,8.097-8.306,16.124-12.426,24.202c-9.513,18.653-18.926,37.357-28.556,55.95
		c-1.945,3.755-3.446,7.347-3.04,11.707c0.381,4.055-3.062,6.167-5.683,8.038c-6.286,4.491-9.998,10.655-13.052,17.446
		c-3.3,7.337-6.563,14.693-10.054,21.94c-1.206,2.505-1.183,4.583,0.029,7.056c5.109,10.425,4.842,21.277,2.707,32.407
		c-1.526,7.965-2.156,16.097-3.432,24.115c-1.956,12.313-4.141,24.532-3.505,37.154c0.273,5.43,2.559,8.179,6.983,10.146
		c7.031,3.126,13.751,7.058,21.436,8.486c2.198,0.409,1.919,1.914,1.981,3.36c0.102,2.327-1.505,3.154-3.38,3.629
		c-6.011,1.524-12.171,1.811-18.325,2.052c-2.995,0.116-5.999,0.02-8.998,0.02C694.395,386.638,694.395,386.648,694.395,386.658z
		 M675.025,200.49c-1.423-0.119-1.877,0.821-1.865,1.838c0.034,3.106-0.676,6.221,0.797,9.289
		c5.536,11.533,13.226,21.907,18.097,33.802c0.587,1.433,1.665,1.827,2.78-0.131c4.332-7.604,8.833-15.115,13.329-22.625
		c0.728-1.216,0.688-2.297-0.267-3.146c-3.448-3.066-5.896-7.379-10.384-9.132c-7.203-2.811-14.501-5.371-21.154-9.406
		C675.941,200.726,675.427,200.633,675.025,200.49z M674.552,355.846c-0.24-1.683-1.634-2.576-2.883-3.685
		c-5.934-5.269-13.477-9.036-16.234-17.31c-0.361-1.085-1.675-1.538-2.49-1.045c-4.738,2.873-9.04,0.49-13.228-1.18
		c-3.322-1.325-4.015,1.114-5.256,2.84c-1.489,2.07-0.232,3.034,1.592,4.194c10.485,6.669,21.163,13.003,32.042,19.001
		c1.638,0.903,2.888,3.641,4.941,2.251C674.136,360.168,674.06,357.685,674.552,355.846z M641.087,325.312
		c6.31,4.977,11.145,3.884,14.631-3.535c0.634-1.347,1.301-2.678,1.974-4.005c5.481-10.816,10.905-21.663,16.494-32.423
		c1.471-2.831-1.021-3.786-2.021-5.471c-0.522-0.88-1.396-1.853-2.362-1.167c-1.684,1.196-0.628,3.065-0.554,4.627
		c0.21,4.398-1.442,8.052-4.101,11.414C657.106,304.921,649.104,315.123,641.087,325.312z M674.199,347.174
		c0.407-0.114,0.814-0.229,1.221-0.343c-1.437-13.329-6.347-26.424-3.137-40.137c-3.533,5.583-6.13,11.25-9.014,16.765
		c-2.548,4.871-2.287,11.173,1.364,14.951C667.632,341.515,670.997,344.266,674.199,347.174z"/>
	<path fill-rule="evenodd" clip-rule="evenodd" fill="#DA3B35" d="M821.374,386.658c-5.165,0-10.34-0.188-15.492,0.065
		c-3.45,0.17-4.953-1.412-5.242-4.502c-0.277-2.949-0.397-5.782,0.615-8.813c2.937-8.787,5.854-17.608,6.831-26.926
		c0.666-6.353,0.078-12.718-0.611-18.93c-1.124-10.13,1.998-18.92,6.286-27.623c0.66-1.341,1.338-2.674,1.967-4.03
		c1.62-3.492-0.25-7.982-3.804-9.06c-1.524-0.462-2.231,0.323-2.08,1.793c1.265,12.289-7.341,18.593-15.31,25.261
		c-11.988,10.029-23.272,20.715-32.623,33.346c-1.996,2.696-2.551,5.123-1.552,8.24c2.238,6.983,3.954,14.252,13.547,14.457
		c1.755,0.037,2.538,2.008,2.611,3.805c0.094,2.313-1.677,3.596-3.393,3.649c-6.146,0.192-12.355,0.38-18.404-0.925
		c-2.087-0.45-3.812-2.318-4.679-4.281c-1.766-3.996-5.015-5.881-8.846-7.193c-0.783-0.268-1.551-0.593-2.303-0.94
		c-9.664-4.473-10.552-10.996-2.129-17.424c8.399-6.411,14.755-14.514,19.676-23.674c2.379-4.43,2.658-9.846,5.627-14.155
		c4.998-7.254,12.504-11.545,19.455-16.475c1.378-0.979,3.125-1.224,1.461-3.518c-1.502-2.07-3.064-3.087-5.382-1.552
		c-5.771,3.822-11.523,7.677-17.216,11.616c-1.273,0.882-2.519,1.659-4.063,1.677c-2.257,0.025-4.527-0.417-5.386-2.762
		c-0.757-2.062,0.16-3.849,2.01-5.164c6.421-4.569,12.671-9.401,19.274-13.688c2.811-1.825,2.966-3.317,1.653-6.04
		c-3.166-6.563-5.926-13.308-8.217-20.238c-0.951-2.876-2.508-5.479-4.842-7.417c-10.103-8.389-9.479-19.176-7.211-30.52
		c2.442-12.21,9.78-22.842,11.279-35.303c2.272-18.881,13.615-32.268,26.852-44.424c5.195-4.771,11.821-7.329,18.717-8.18
		c8.659-1.068,14.115-5.07,16.687-13.567c1.223-4.039,3.351-7.941,5.724-11.465c5.862-8.703,17.55-10.714,26.462-4.716
		c4.226,2.843,8.266,5.978,12.267,9.137c6.013,4.748,6.327,8.808,1.858,14.597c-2.567,3.326-5.267,6.768-4.668,11.534
		c0.13,1.036-0.276,2.799-0.99,3.176c-5.449,2.878-8.202,7.724-10.623,13.07c-0.998,2.206-3.186,2.208-5.606,1.168
		c-3.836-1.646-7.021-4.885-11.91-4.17c-3.08,0.449-4.663,1.529-4.687,4.526c-0.096,12.158-4.2,23.338-8.41,34.473
		c-1.628,4.307-1.103,7.594,2.862,10.366c5.946,4.161,11.834,8.429,17.485,12.976c2.386,1.92,3.856,1.49,5.954-0.202
		c3.444-2.775,6.883-5.639,11.23-7.014c2.678-0.847,1.809-2.207,0.453-3.589c-1.973-2.012-3.979-3.991-5.926-6.026
		c-3.106-3.246-2.583-6.058,1.125-9.725c3.42-3.381,5.601-1.169,7.856,1.242c2.688,2.873,5.44,5.707,7.871,8.789
		c1.207,1.531,2.608,1.938,4.277,2.051c10.23,0.694,17.691,9.371,16.545,19.652c-0.372,3.334,0.783,5.62,2.917,7.924
		c2.307,2.488,4.859,4.752,4.724,8.864c-0.119,3.586-1.917,5.472-4.655,6.868c-2.911,1.484-5.473,0.762-7.518-1.785
		c-0.1-0.124-0.301-0.162-0.408-0.282c-2.195-2.419-3.977-6.008-6.684-6.956c-2.916-1.021-4.041,4.078-7.14,4.939
		c-1.417,0.394-2.688,1.454-4.108,1.67c-13.315,2.024-23.666,8.619-30.65,20.119c-1.974,3.249-4.15,4.991-7.99,4.35
		c-1.229-0.206-2.739-1.019-3.636,0.444c-0.747,1.22,0.524,2.127,1.044,3.108c4.229,7.99,8.347,16.021,12.005,24.308
		c1.71,3.874,1.457,7.078,0.2,10.935c-5.563,17.066-12.116,33.747-19.103,50.259c-2.625,6.204-0.767,12.108,0.392,18.077
		c0.326,1.677,1.532,3.046,3.512,3.853c7.91,3.223,15.217,8.227,24.328,7.671c2.077-0.126,3.087,1.158,2.995,3.127
		c-0.124,2.65-1.942,3.69-4.302,4.017c-8.076,1.118-16.146,2.298-24.341,2.034c-2.163-0.07-4.332-0.011-6.497-0.011
		C821.374,386.636,821.374,386.647,821.374,386.658z M818.6,237.205c0.084-1.35-0.928-1.955-1.758-2.77
		c-4.8-4.712-9.539-9.487-14.308-14.231c-0.888-0.883-1.778-2.559-3.172-1.342c-1.22,1.066-0.669,2.605,0.141,4.044
		c3.646,6.479,9.303,11.323,13.755,17.142c0.685,0.896,1.572,1.208,2.6,0.567C817.16,239.803,818.115,238.695,818.6,237.205z
		 M826.732,216.243c0.333,3.531,2.251,5.243,3.436,7.259c0.54,0.918,1.351,2.757,2.989,1.645c1.303-0.885,2.855-2.12,3.21-3.481
		c0.364-1.404-1.68-1.504-2.82-2.02C831.493,218.715,829.504,217.64,826.732,216.243z"/>
	<path fill-rule="evenodd" clip-rule="evenodd" fill="#DA3B35" d="M490.263,78.322c1.639-7.336,3.425-13.892,6.386-20.046
		c1.872-3.893,5.098-6.597,8.902-8.378c11.465-5.368,22.89-3.867,34.173,0.727c2.219,0.903,3.851,3.059,2.865,5.15
		c-1.511,3.204-1.586,6.261-1.255,9.599c0.79,7.969-1.111,15.927,0.297,23.982c1.428,8.175,0.573,8.521-7.253,10.684
		c-2.51,0.693-6.38-0.124-7.38,2.864c-1.285,3.839,3.043,4.712,5.151,6.357c6.363,4.964,13.022,9.559,19.684,14.125
		c2.824,1.935,6.368,1.677,9.603,2.271c6.696,1.231,10.575,5.367,12.338,11.667c0.686,2.454,2.38,3.903,4.21,5.34
		c16.5,12.958,33.279,25.564,49.089,39.386c1.184,1.035,2.124,2.064,2.595,3.468c0.542,1.617,0.809,3.408-0.859,4.527
		c-1.492,1.002-3.169,0.909-4.644-0.251c-13.44-10.572-26.882-21.142-40.307-31.733c-4.78-3.77-9.045-8.584-14.397-11.128
		c-5.859-2.783-12.697-2.022-18.761,0.846c-2.776,1.313-5.071,3.607-7.722,5.234c-9.81,6.022-12.483,14.783-11.402,25.891
		c0.802,8.23,0.579,16.628-0.251,24.949c-0.845,8.476,3.768,15.559,6.546,23.021c4.218,11.331,9.03,22.332,8.907,34.854
		c-0.084,8.594,2.898,16.829,5.372,24.978c0.989,3.258-0.416,5.844-0.412,8.75c0.03,21.154-0.014,42.309-0.002,63.463
		c0.002,5.069,3.97,7.509,7.34,10.003c3.95,2.924,8.193,5.589,12.64,7.656c3.353,1.56,7.193,2.172,10.881,2.859
		c1.635,0.305,3.141,0.333,2.904,2.396c-0.182,1.589-0.379,3.402-2.526,3.813c-2.436,0.467-4.809,1.081-7.358,1.061
		c-12.995-0.102-25.99-0.044-38.985-0.048c-6.466-0.002-7.464-0.528-6.718-7.17c0.935-8.321,0.325-16.539,0.323-24.816
		c-0.001-8.618-1.802-16.568-5.744-23.771c-6.208-11.345-3.535-22.532-1.021-33.854c1.388-6.249,3.27-12.313-3.003-17.23
		c-1.876-1.472-2.855-2.801-3.998,0.658c-3.2,9.686-6.711,19.262-9.452,29.104c-2.506,8.998-5.467,17.866-8.041,26.846
		c-2.437,8.502-0.759,17.223-0.998,25.843c-0.036,1.294,1.061,1.886,2.125,2.491c4.577,2.602,9.034,5.655,14.667,4.859
		c3.543-0.501,5.922,1.78,8.618,3.22c1.42,0.758,1.851,2.753,0.996,3.996c-1.337,1.945-2.479,5.051-5.111,4.862
		c-6.807-0.483-13.904,2.113-20.439-1.972c-1.889-1.181-4.225-0.33-6.279,0.509c-3.919,1.601-7.925,2.118-12.191,1.663
		c-5.815-0.618-7.228-1.988-6.464-7.816c0.559-4.268,1.601-8.474,2.114-12.746c1.198-9.961,1.525-20.05,0.112-29.918
		c-1.943-13.578,1.782-25.572,8.065-37.146c4.374-8.057,7.507-16.218,6.723-25.771c-0.679-8.274-0.45-16.665-0.021-24.973
		c0.24-4.642-0.742-8.459-3.914-11.708c-3.676-3.769-5.016-8.513-3.951-13.313c1.774-8-0.638-15.045-3.546-22.123
		c-3.313-8.063-4.727-16.549-5.736-25.126c-0.417-3.544-3.44-6.694-1.938-10.463c2.788-6.994,2.84-14.537,4.667-21.709
		c2.235-8.778,4.53-17.542,6.902-26.283c1.399-5.158,5.291-8.692,8.635-12.544c3.464-3.994,3.259-8.99-0.738-12.617
		c-6.089-5.522-12.906-10.11-19.465-15.028c-15.658-11.742-31.016-23.926-47.173-34.934c-4.583-3.123-8.857-5.612-11.282-10.729
		c-0.684-1.442-1.466-2.576-0.579-4.087c1.092-1.861,2.897-1.424,4.483-1.154c5.815,0.99,9.988,3.919,14.168,8.492
		c6.132,6.709,14.079,11.753,21.222,17.546C465.035,57.784,477.392,67.854,490.263,78.322z M541.463,137.469
		c1.422-1.553,3.69-3.371,5.063-5.713c1.319-2.249-1.458-2.969-2.729-3.988c-3.459-2.773-7.1-5.32-10.628-8.008
		c-0.986-0.751-1.814-2.645-3.131-1.496c-1.194,1.042-0.528,2.725,0.474,4.042c3.105,4.079,6.119,8.208,7.724,13.19
		C538.555,136.491,539.056,137.788,541.463,137.469z"/>
	<path fill-rule="evenodd" clip-rule="evenodd" fill="#DA3B35" d="M283.334,386.656c-11.833-0.17-25.348-0.75-38.768-0.529
		c-13.128,0.215-26.281,0.146-39.417,0.501c-6.165,0.167-9.48-4.72-7.426-10.732c1.282-3.751,2.485-7.558,4.127-11.155
		c4.088-8.964,5.706-18.478,5.514-28.136c-0.25-12.588,4.647-22.596,13.985-30.399c4.396-3.673,3.885-7.574,1.826-11.429
		c-4.862-9.1-9.136-18.536-11.966-28.326c-2.321-8.027-5.22-15.583-9.397-22.697c-4.3-7.324-2.832-14.521,0.814-21.24
		c10.712-19.74,20.369-39.983,29.604-60.435c7.7-17.048,22.133-26.864,37.836-35.1c6.601-3.461,12.672-6.838,18.037-12.479
		c10.538-11.081,20.293-13.569,34.651-5.399c2.292,1.305,4.797,2.147,6.897,3.899c3.507,2.925,5.318,6.287,3.979,10.888
		c-0.273,0.942-0.972,2.006-0.07,2.801c3.104,2.74,1.562,5.001-0.226,7.727c-1.929,2.944,0.31,6.089,0.989,8.902
		c1.202,4.978-0.372,8.492-3.9,11.47c-3.536,2.983-6.77,5.814-12.417,3.64c-6.605-2.543-13.781-4.292-20.106,1.541
		c-1.913,1.764-3.712,3.75-3.691,6.254c0.078,9.471-5.019,16.612-10.216,23.707c-8.224,11.226-9.664,23.146-4.063,35.892
		c2.7,6.146,3.583,12.628,4,19.268c0.57,9.093-1.951,18.253,0.704,27.29c1.671,5.691,4.095,11.12,5.272,17
		c1.083,5.406-0.357,9.865-3.721,13.854c-3.108,3.686-4.643,7.621-4.478,12.621c0.333,10.111,0.52,20.229-2.346,30.184
		c-1.381,4.797-0.831,9.974-0.225,14.914c0.959,7.814,7.208,10.95,13.46,13.567c6.097,2.554,12.505,3.846,19.257,3.148
		c3.202-0.33,6.794,4.716,5.939,7.838c-0.534,1.951-2.193,1.099-3.325,1.107C304.64,386.688,294.808,386.656,283.334,386.656z
		 M251.607,374.749c6.202,2.418,6.196-1.235,6.131-5.468c-0.181-11.824-1.358-23.396-5.797-34.557
		c-1.716-4.315-2.833-8.949-1.146-13.928c1.87-5.514,4.342-10.716,6.722-15.986c0.63-1.396,2.084-2.794,0.136-4.398
		c-1.163-0.958-2.129-2.218-3.847-1.826c-2.393,0.545-2.651,2.701-3.227,4.559c-3.57,11.522-9.975,21.79-14.553,32.865
		c-2.998,7.252-6.613,14.254-8.915,21.79c-0.557,1.82-0.71,3.76,0.982,5.057C235.25,368.337,242.787,373.109,251.607,374.749z"/>
	<path fill-rule="evenodd" clip-rule="evenodd" fill="#DA3B35" d="M427.356,386.658c-6.996,0-13.992,0.033-20.988-0.009
		c-8.701-0.053-10.616-3.158-6.129-10.339c1.846-2.955,2.709-5.885,2.585-9.343c-0.186-5.157-0.421-10.36,0.044-15.482
		c0.818-8.979-2.554-17.187-4.122-25.718c-0.822-4.473,0.662-8.698,1.996-12.492c1.277-3.633,1.875-7.578,3.922-11.063
		c2.164-3.684-3.623-12.347-7.941-12.465c-1.849-0.051-1.698,1.365-1.543,2.453c1.504,10.553-3.631,17.821-11.055,24.576
		c-10.07,9.165-19.483,19.049-29.262,28.538c-11.377,11.04-8.556,27.679,5.971,34.299c2.101,0.957,3.384,2.12,2.938,4.484
		c-0.441,2.337-2.363,2.829-4.223,2.502c-5.875-1.031-11.889-1.397-17.554-3.496c-2.89-1.071-3.557-4.162-4.92-6.268
		c-2.055-3.177-4.544-5.371-7.635-7.187c-0.998-0.586-2.069-1.063-3.014-1.723c-9.988-6.963-9.888-9.857,0.148-16.636
		c7.561-5.104,11.667-12.855,14.971-21.024c1.357-3.357,2.293-6.919,3.079-10.464c1.535-6.921,6.977-10.389,12.09-14.174
		c1.708-1.264,3.438-2.566,5.333-3.495c5.653-2.773,5.471-7.096,3.504-12.028c-3.096-7.766-5.423-15.651-4.144-24.189
		c0.44-2.937-1.666-5.084-3.3-6.953c-2.755-3.147-4.599-6.838-7.003-10.177c-4.507-6.264-3.539-13.424-2.069-20.189
		c0.76-3.502,0.342-6.171-1.453-8.794c-3.008-4.392-5.386-8.875-6.564-14.239c-1.622-7.385-4.225-14.468-4.485-22.231
		c-0.182-5.388,1.805-9.265,5.209-12.81c3.402-3.542,6.827-7.081,10.488-10.348c4.341-3.874,8.108-7.808,10.519-13.464
		c3.644-8.555,10.635-14.978,17.03-21.563c4.802-4.948,8.164-9.854,8.272-17.255c0.132-8.932,6.778-14.533,15.771-16.489
		c7.246-1.576,14.13-3.15,21.397-0.089c4.883,2.058,9.284,4.003,8.6,10.438c-0.158,1.484,1.182,2.316,1.646,3.476
		c1.011,2.526,2.865,4.427,1.777,8.146c-0.741,2.532,1.602,6.487,1.478,10.184c-0.32,9.489-7.732,17.151-17.037,17.19
		c-2.632,0.011-5.37-0.684-7.89,0.38c-4.738,2-6.598,6.105-5.412,11.395c0.255,1.135,0.208,2.402,0.701,3.413
		c4.719,9.672,1.998,17.978-4.542,25.631c-3.126,3.661-1.285,8.31-2.385,12.383c-0.108,0.4,0.535,1.289,1.032,1.525
		c10.424,4.957,18.308,14.151,29.66,17.639c2.298,0.706,3.942,1.353,6.463,0.328c7.758-3.149,18.514,3.428,19.458,11.691
		c0.529,4.624-2.471,8.381-5.446,10.668c-7.977,6.134-11.778,15.24-17.822,22.698c-1.666,2.056-3.291,4.146-4.897,6.248
		c-1.012,1.326-1.886,2.949-3.963,1.979c-1.817-0.849-2.014-2.563-1.834-4.271c0.486-4.602,2.49-8.83,3.494-13.337
		c0.908-4.071,2.246-8.224,3.607-12.279c1.827-5.441-0.338-9.485-5.926-9.937c-7.159-0.579-13.943-3.29-21.14-3.234
		c-2.046,0.016-4.892-2.475-6.018,0.997c-1.081,3.33-2.319,6.673,0.668,10.216c6.475,7.681,12.812,15.521,18.602,23.723
		c6.928,9.813,11.631,20.846,14.656,32.437c2.214,8.485-0.818,16.823-2.313,25.107c-2.439,13.517-6.412,26.695-6.891,40.639
		c-0.317,9.265,5.243,13.521,11.529,17.873c3.635,2.517,7.634,3.696,12.084,3.033c0.324-0.048,0.723-0.095,0.989,0.044
		c2.761,1.441,7.938,0.177,7.57,5.146c-0.345,4.646-4.726,3.687-7.874,3.739C441.017,386.737,434.186,386.658,427.356,386.658z"/>
	<path fill-rule="evenodd" clip-rule="evenodd" fill="#DA3B35" d="M962.708,383.706c2.03-5.108-1.301-8.593-3.094-12.273
		c-1.65-3.389-4.54-1.141-7.027-0.824c-3.516,0.448-2.523,2.091-1.385,4.02c2.62,4.443,0.218,8.997-4.88,9.297
		c-0.663,0.039-1.332,0.004-1.998,0.006c-7.739,0.029-8.007,0.013-7.502-7.731c0.306-4.684-1.875-6.408-5.904-6.497
		c-9.981-0.221-19.968-0.253-29.952-0.346c-0.773-0.007-1.716-0.284-2.018,0.864c-0.288,1.093,0.714,1.317,1.235,1.89
		c3.552,3.9,0.044,8.087,0.076,12.087c0.021,2.662-4.29,2.049-6.861,2.465c-4.036,0.652-4.952-2.908-5.312-5.005
		c-0.606-3.541-1.786-7.597,1.301-10.922c1.497-1.612,1.031-3.379-0.102-4.975c-0.779-1.098-1.42-2.137-1.582-3.564
		c-0.934-8.244,0.205-9.51,8.802-9.416c2.315,0.025,4.757,0.515,5.185-2.973c0.181-1.469,1.574-2.165,3.016-2.106
		c5.604,0.23,11.259-0.793,16.774,1.438c4.301,1.74,7.126-0.493,7.118-5.062c-0.01-6.151,0.01-12.303-0.015-18.453
		c-0.004-0.933,0.506-2.141-0.542-2.709c-1.341-0.727-1.85,0.434-2.695,1.308c-1.931,1.998-4.177,3.691-6.304,5.498
		c-1.928,1.638-4.215,2.644-6.216,0.661c-2.287-2.265-0.999-4.598,0.943-6.507c1.3-1.277,2.647-2.529,4.11-3.607
		c1.396-1.027,4.522-1.877,3.549-3.296c-1.397-2.036-3.138-4.677-6.136-5.103c-1.633-0.232-3.325-0.051-4.991-0.064
		c-9.096-0.072-16.754-6.849-17.209-15.925c-0.348-6.947-0.01-13.943,0.34-20.901c0.088-1.757-0.072-3.243-1.548-3.738
		c-4.533-1.521-3.185-5.211-3.424-8.353c-0.282-3.701,0.866-6.099,5.071-6.408c1.863-0.137,2.125-2.153,2.028-3.547
		c-0.228-3.285,1.469-5.938,3.107-8.234c3.138-4.395,7.109-5.622,10.486-2.938c1.139,0.906,2.568,1.447,4.13,2.3
		c2.058-5.303,1.814-10.976,4.253-16.152c5.937-12.604,13.796-23.332,26.962-28.741c8.012-3.292,16.773-4.649,25.438-3.354
		c6.526,0.976,8.927-2.651,10.694-7.535c2.734-7.559,7.85-13.076,14.943-16.344c6.793-3.128,13.354-0.212,19.446,2.81
		c3.008,1.492,5.921,3.317,8.322,6.044c3.456,3.927,5.024,6.785,2.368,12.586c-1.852,4.042-4.216,9.242-3.079,14.582
		c0.469,2.204-0.108,4.668-2.399,5.549c-4.154,1.599-6.22,5.168-8.516,8.423c-2.151,3.051-4.651,3.768-7.68,2.102
		c-3.311-1.821-6.985-1.957-10.48-2.908c-1.621-0.442-2.961-0.046-2.66,1.719c1.286,7.55-1.072,15.142,0.742,22.756
		c1.371,5.754,4.812,7.661,9.535,3.929c3.246-2.564,6.563-5.254,9.074-8.487c5.266-6.781,11.733-8.842,20.14-7.805
		c8.575,1.057,16.73,2.219,22.391,9.716c0.774,1.025,2.7,2.139,1.514,3.149c-4.407,3.751-0.113,4.408,1.808,6.037
		c1.138,0.965,2.032,2.224,3.193,3.155c2.591,2.078,3.609,4.44,1.313,7.254c-2.186,2.674-5.205,3.34-7.973,1.394
		c-3.605-2.535-7.778-2.813-11.767-3.718c-2.472-0.563-4.974-0.157-3.233,3.704c0.837,1.855,0.316,3.934-1.813,4.457
		c-2.228,0.548-4.278-0.273-5.104-2.811c-0.459-1.409-0.7-2.961-1.462-4.187c-2-3.216-4.533-4.364-7.685-1.275
		c-0.472,0.463-1.062,0.802-1.55,1.25c-2.57,2.357-6.538,4.354-7.298,7.204c-0.79,2.964,3.933,4.507,6.128,6.768
		c5.636,5.806,3.185,10.146-0.81,18.539c-3.566,7.497-10.567,11.974-16.511,17.2c-10.66,9.376-17.415,21.32-23.808,33.579
		c-1.973,3.784,1.055,7.677,6.678,7.839c5.708,0.165,6.965,2.521,5.446,7.48c-0.363,1.189,0.049,2.148,1.074,3.054
		c1.719,1.519,2.662,3.438,1.555,5.789c-1.171,2.483-3.503,2.855-5.859,3.091c-1.146,0.114-2.33-0.056-3.448,0.158
		c-0.525,0.101-1.262,0.758-1.331,1.245c-0.152,1.056,0.771,1.37,1.638,1.318c4.229-0.251,8.511,0.491,7.823,5.688
		c-0.706,5.339-5.852,3.11-9.108,3.289C975.728,383.957,969.231,383.706,962.708,383.706z M975.661,300.862
		c-4.862-0.598-6.552,1.035-5.913,5.283c0.451,2.996-0.575,5.473-4.094,5.475c-7.14,0.004-14.286-0.1-21.415-0.454
		c-1.558-0.077-3.267-0.54-4.051,0.778c-0.908,1.528-1.098,3.631,0.389,5.077c2.579,2.51,2.485,5.516,2.383,8.766
		c-0.211,6.644-0.119,13.297-0.107,19.946c0.003,1.611-0.32,3.712,2.031,3.867c3.837,0.253,5.191-3.563,7.84-5.304
		c1.845-1.212,0.791-2.825-0.021-4.371c-2.61-4.971-2.116-6.434,2.707-9.519c2.08-1.33,3.949-3.011,6.09-4.219
		c4.97-2.807,8.074-6.657,9.455-12.417C971.975,309.509,972.936,305.064,975.661,300.862z M968.308,264.656
		c-1.7-4.902-4.951-9.338-4.531-14.833c0.067-0.89-0.429-1.694-1.351-1.808c-1.393-0.171-2.812,0.338-3.398,1.555
		c-1.851,3.842-3.619,7.735-5.123,11.722c-0.527,1.398-0.839,3.427,1.955,3.382C959.91,264.607,963.96,264.656,968.308,264.656z
		 M913.012,293.046c-4.972-3.921-2.523-8.269-2.568-12.733c-2.96,1.675-5.674,2.838-7.932,4.592
		c-2.368,1.84-1.938,4.876-1.407,7.341c0.627,2.909,3.137,1.421,4.957,1.308C907.848,293.442,909.633,293.295,913.012,293.046z"/>
	<path fill-rule="evenodd" clip-rule="evenodd" fill="#DA3B35" d="M135.814,255.544c3.776,9.923,2.182,19.844,1.806,29.471
		c-0.321,8.251,3.385,13.315,8.942,18.115c7.904,6.825,17.082,11.793,25.924,17.11c10.144,6.101,14.443,15.141,16.117,25.971
		c0.935,6.047-4.347,6.528-8.336,7.917c-4.244,1.477-7.15,0.039-8.679-4.115c-1.912-5.195-2.616-10.889-7.575-14.648
		c-2.864-2.171-5.25-4.981-8.661-6.415c-0.977-0.41-1.979-1.647-3.084-0.377c-0.88,1.012-0.472,2.225,0.011,3.289
		c5.122,11.298,8.8,23.139,13.125,34.736c1.88,5.043,1.427,10.457,3.04,15.58c0.822,2.614-1.514,4.491-4.574,4.482
		c-5.666-0.017-11.335-0.15-16.994,0.051c-3.375,0.12-3.938-1.569-2.599-3.881c1.866-3.22,1.204-5.854-0.482-8.821
		c-2.447-4.305,0.534-7.979,2.084-11.631c1.249-2.94,1.292-4.795-1.116-7.415c-10.701-11.638-20.99-23.651-31.562-35.41
		c-3.744-4.163-5.447-8.699-3.729-14.121c0.694-2.191-0.014-3.683-1.739-4.583c-3.486-1.82-7.096-3.411-10.687-5.025
		c-1.286-0.578-2.643-0.397-3.839,0.33c-1.262,0.768-2.522,1.565-3.664,2.496c-8.508,6.938-8.134,6.688-1.742,15.644
		c7.086,9.928,11.962,20.545,10.565,33.617c-0.896,8.39-1.82,16.825-2.547,25.257c-0.325,3.773,0.968,4.835,4.412,4.43
		c5.283-0.623,10.592-0.038,15.931-0.528c5.511-0.507,3.122,5.273,4.227,8.044c0.942,2.363-2.272,1.473-3.583,1.481
		c-14.329,0.101-28.659-0.026-42.987,0.131c-3.2,0.035-4.534-0.731-4.138-4.122c1.233-10.539,2.28-21.1,3.46-31.645
		c0.388-3.463,1.031-6.897,1.428-10.359c0.291-2.544-7.112-8.349-9.563-7.519c-1.439,0.487-1.282,1.874-1.123,2.98
		c0.914,6.344-2.352,10.376-6.952,14.177c-5.734,4.735-11.846,8.901-18.037,12.942c-2.29,1.494-2.784,2.758-1.096,4.599
		c1.362,1.485,1.145,3.453,2.06,4.976c1.301,2.166,1.51,5.671,5.633,4.703c2.072-0.486,3.468,0.76,2.689,2.818
		c-0.558,1.476,1.352,4.77-2.751,4.218c-3.948-0.531-8.083-0.111-11.898-1.064c-4.9-1.226-9.601-2.841-11.239-9.053
		c-0.86-3.262-3.134-6.488-5.105-9.431c-2.851-4.259-0.568-6.761,2.088-9.326c6.673-6.45,13.431-12.814,20.188-19.177
		c2.458-2.313,3.181-4.427,1.179-7.76c-3.971-6.61-7.396-13.551-10.957-20.401c-2.531-4.868-2.743-9.371,0.48-14.458
		c11.379-17.962,28.173-30.686,42.881-45.434c7.148-7.168,16.294-10.311,25.506-13.323c2.703-0.885,4.028-2.445,5.173-4.821
		c4.377-9.088,11.145-14.833,21.656-15.756c5.034-0.442,9.241,0.979,12.779,4.163c2.095,1.886,4.406,3.127,6.964,3.528
		c3.457,0.542,5.149,2.043,4.689,5.589c-0.255,1.971,0.501,3.355,1.918,4.764c2.774,2.757,3.308,6.766,5.009,10.138
		c0.517,1.026,0.492,3.265-0.188,3.802c-4.168,3.289-4.38,8.716-7.241,12.639c-3.277,4.495-5.246,4.407-8.859,0.29
		C139.235,258.01,138.705,255.628,135.814,255.544z"/>
	<path fill-rule="evenodd" clip-rule="evenodd" fill="#FDF9F9" d="M675.025,200.49c0.402,0.144,0.916,0.236,1.333,0.489
		c6.653,4.035,13.951,6.596,21.154,9.406c4.488,1.753,6.936,6.065,10.384,9.132c0.955,0.849,0.994,1.93,0.267,3.146
		c-4.496,7.51-8.997,15.021-13.329,22.625c-1.115,1.958-2.193,1.563-2.78,0.131c-4.871-11.895-12.561-22.269-18.097-33.802
		c-1.473-3.068-0.763-6.183-0.797-9.289C673.148,201.311,673.602,200.371,675.025,200.49z"/>
	<path fill-rule="evenodd" clip-rule="evenodd" fill="#FCF5F5" d="M674.552,355.846c-0.492,1.839-0.416,4.322-1.516,5.067
		c-2.054,1.39-3.304-1.348-4.941-2.251c-10.879-5.998-21.557-12.332-32.042-19.001c-1.824-1.16-3.081-2.124-1.592-4.194
		c1.241-1.726,1.934-4.165,5.256-2.84c4.188,1.67,8.489,4.053,13.228,1.18c0.815-0.493,2.129-0.04,2.49,1.045
		c2.758,8.273,10.301,12.041,16.234,17.31C672.918,353.27,674.312,354.164,674.552,355.846z"/>
	<path fill-rule="evenodd" clip-rule="evenodd" fill="#FCF3F3" d="M641.087,325.312c8.017-10.189,16.019-20.391,24.061-30.56
		c2.658-3.362,4.311-7.016,4.101-11.414c-0.074-1.562-1.13-3.431,0.554-4.627c0.966-0.686,1.84,0.287,2.362,1.167
		c1.001,1.685,3.492,2.64,2.021,5.471c-5.589,10.76-11.013,21.606-16.494,32.423c-0.673,1.327-1.34,2.658-1.974,4.005
		C652.232,329.196,647.397,330.289,641.087,325.312z"/>
	<path fill-rule="evenodd" clip-rule="evenodd" fill="#FCF3F3" d="M674.199,347.174c-3.202-2.908-6.566-5.659-9.565-8.764
		c-3.651-3.778-3.912-10.08-1.364-14.951c2.884-5.515,5.48-11.182,9.014-16.765c-3.21,13.713,1.7,26.808,3.137,40.137
		C675.013,346.946,674.606,347.06,674.199,347.174z"/>
	<path fill-rule="evenodd" clip-rule="evenodd" fill="#FCF2F2" d="M818.6,237.211c-0.485,1.483-1.44,2.592-2.742,3.403
		c-1.027,0.641-1.915,0.328-2.6-0.567c-4.452-5.818-10.108-10.663-13.755-17.142c-0.81-1.438-1.36-2.978-0.141-4.044
		c1.394-1.217,2.284,0.459,3.172,1.342c4.769,4.744,9.508,9.52,14.308,14.231C817.672,235.25,818.684,235.855,818.6,237.211z"/>
	<path fill-rule="evenodd" clip-rule="evenodd" fill="#FBF0EF" d="M826.732,216.243c2.772,1.397,4.761,2.473,6.814,3.402
		c1.141,0.516,3.185,0.615,2.82,2.02c-0.354,1.361-1.907,2.597-3.21,3.481c-1.639,1.112-2.449-0.727-2.989-1.645
		C828.983,221.486,827.065,219.774,826.732,216.243z"/>
	<path fill-rule="evenodd" clip-rule="evenodd" fill="#FCF2F2" d="M541.463,137.469c-2.407,0.318-2.908-0.979-3.228-1.973
		c-1.604-4.983-4.619-9.111-7.724-13.19c-1.002-1.316-1.668-2.999-0.474-4.042c1.317-1.149,2.145,0.745,3.131,1.496
		c3.529,2.688,7.169,5.235,10.628,8.008c1.271,1.019,4.047,1.739,2.729,3.988C545.153,134.098,542.885,135.917,541.463,137.469z"/>
	<path fill-rule="evenodd" clip-rule="evenodd" fill="#FDF7F7" d="M251.607,374.749c-8.821-1.64-16.357-6.411-23.515-11.893
		c-1.692-1.297-1.539-3.236-0.982-5.057c2.302-7.536,5.917-14.538,8.915-21.79c4.579-11.075,10.983-21.343,14.553-32.865
		c0.575-1.857,0.834-4.014,3.227-4.559c1.718-0.392,2.685,0.868,3.847,1.826c1.948,1.604,0.494,3.002-0.136,4.398
		c-2.38,5.271-4.852,10.473-6.722,15.986c-1.687,4.979-0.57,9.612,1.146,13.928c4.439,11.16,5.616,22.732,5.797,34.557
		C257.804,373.513,257.809,377.167,251.607,374.749z"/>
	<path fill-rule="evenodd" clip-rule="evenodd" fill="#FDF6F6" d="M975.661,300.862c-2.725,4.202-3.686,8.647-4.707,12.909
		c-1.381,5.76-4.485,9.61-9.455,12.417c-2.141,1.208-4.01,2.889-6.09,4.219c-4.823,3.085-5.317,4.548-2.707,9.519
		c0.813,1.546,1.866,3.159,0.021,4.371c-2.648,1.74-4.003,5.557-7.84,5.304c-2.352-0.155-2.028-2.256-2.031-3.867
		c-0.012-6.649-0.104-13.303,0.107-19.946c0.103-3.25,0.196-6.256-2.383-8.766c-1.486-1.446-1.297-3.549-0.389-5.077
		c0.784-1.318,2.493-0.855,4.051-0.778c7.129,0.354,14.275,0.458,21.415,0.454c3.519-0.002,4.545-2.479,4.094-5.475
		C969.109,301.897,970.798,300.264,975.661,300.862z"/>
	<path fill-rule="evenodd" clip-rule="evenodd" fill="#FCF2F2" d="M968.308,264.656c-4.348,0-8.398-0.049-12.448,0.018
		c-2.794,0.045-2.482-1.983-1.955-3.382c1.504-3.986,3.272-7.88,5.123-11.722c0.587-1.217,2.006-1.726,3.398-1.555
		c0.922,0.113,1.418,0.918,1.351,1.808C963.357,255.318,966.608,259.753,968.308,264.656z"/>
	<path fill-rule="evenodd" clip-rule="evenodd" fill="#FBF0EF" d="M913.012,293.046c-3.379,0.249-5.164,0.396-6.95,0.507
		c-1.82,0.113-4.33,1.602-4.957-1.308c-0.531-2.465-0.961-5.501,1.407-7.341c2.258-1.754,4.972-2.917,7.932-4.592
		C910.489,284.778,908.041,289.125,913.012,293.046z"/>
	<path fill-rule="evenodd" clip-rule="evenodd" fill="#DA3B35" d="M1047.098,340.133c0-13.826-0.11-27.653,0.078-41.477
		c0.047-3.4-1.03-4.43-4.279-4.113c-2.809,0.274-5.659,0.12-8.492,0.132c-2.691,0.011-5.935,0.229-6.499-3.125
		c-0.575-3.421-0.726-6.634,2.663-9.834c7.071-6.676,15.096-8.224,24.172-7.169c0.494,0.058,0.998,0.017,1.498,0.015
		c3.83-0.02,8.518,1.317,11.263-0.419c3.149-1.989,0.215-7.187,1.325-10.689c1.12-3.533,2.349-7.194,5.067-10.015
		c0.426-0.44,0.951-1.12,0.89-1.624c-0.124-1.019-1.092-1.01-1.943-1.011c-2.828-0.004-5.67-0.211-8.483-0.008
		c-4.559,0.329-6.292-2.057-5.551-6.059c1.392-7.518,2.402-15.077,3.434-22.646c1.266-9.298,3.028-18.528,4.254-27.829
		c0.435-3.297,1.569-5.116,4.978-4.511c5.207,0.925,10.382,2.032,15.547,3.166c0.925,0.203,1.968,0.718,2.566,1.42
		c7.535,8.832,17.913,13.329,27.988,18.19c2.843,1.372,4.149,3.068,4.148,6.026c-0.003,5.831-0.064,11.662-0.012,17.491
		c0.034,3.783-1.896,5.59-5.507,5.499c-5.103-0.129-9.099,2.939-13.531,4.63c-3.3,1.26-3.016,3.77,0.104,6.034
		c2.494,1.81,5.653,3.137,4.975,7.238c-0.376,2.27,1.362,2.205,2.92,2.186c7.489-0.093,14.992,0.054,22.466-0.353
		c3.819-0.207,5.248,1.117,5.076,4.737c-0.063,1.321,0.387,2.756,0.018,3.959c-1.256,4.101,0.545,5.644,4.346,6.523
		c3.849,0.892,6.291,3.375,6.39,7.739c0.088,3.845-1.079,7.135-4.821,8.255c-3.113,0.933-6.559,0.829-9.866,1.02
		c-3.651,0.209-7.313,0.285-10.971,0.314c-2.568,0.021-3.202,1.015-3.184,3.682c0.201,28.32,0.173,56.642,0.315,84.962
		c0.016,3.121-0.725,4.301-4.172,4.273c-21.658-0.17-43.319-0.182-64.978,0.005c-3.757,0.032-4.359-1.369-4.327-4.634
		c0.14-13.993,0.06-27.988,0.06-41.982C1047.046,340.133,1047.073,340.133,1047.098,340.133z"/>
</g>
</svg>
